<!DOCTYPE svg PUBLIC "-//W3C//DTD SVG 1.1//EN" "http://www.w3.org/Graphics/SVG/1.1/DTD/svg11.dtd">
<!-- Uploaded to: SVG Repo, www.svgrepo.com, Transformed by: SVG Repo Mixer Tools -->
<svg width="800px" height="800px" viewBox="0 0 24 24" xmlns="http://www.w3.org/2000/svg" fill="none" stroke="#ffb800">
<g id="SVGRepo_bgCarrier" stroke-width="0"/>
<g id="SVGRepo_tracerCarrier" stroke-linecap="round" stroke-linejoin="round"/>
<g id="SVGRepo_iconCarrier">
<path stroke="#ffb800" stroke-linecap="round" stroke-linejoin="round" stroke-width="2" d="M18 19V5a2 2 0 0 0-2-2H8a2 2 0 0 0-2 2v14a2 2 0 0 0 2 2h8a2 2 0 0 0 2-2zM9 6.001V6m3 .001V6m3 .001V6M9 9.001V9m3 .001V9m3 .001V9m-6 3.001V12m3 .001V12m0 6.001V18"/>
</g>
</svg>